<svg xmlns="http://www.w3.org/2000/svg" xml:space="preserve" viewBox="0 0 1024 1024"><path fill="#3DACB7" d="m822.896 359.797 13.011-21.66c3.42 7.349-15.171 41.374-32.233 59.342-16.377 17.247-36.006 28.506-60.292 32.83-3.372-.62-6.006-.962-8.464-1.813-9.945-3.443-19.836-7.043-29.755-10.956-.245-2.714-.481-5.058-.346-7.516 4.298-2.45 8.224-4.784 12.537-7.046 14.217 4.639 28.432 5.517 42.638 3.075 22.21-3.818 38.812-17.178 53.598-33.21.707-.767.88-2.026 1.302-3.055.888-1.146 1.777-2.291 3.263-3.645.977-.923 1.357-1.638 1.738-2.353.287-.468.574-.937 1.41-1.628.896-.937 1.245-1.651 1.593-2.365"/><path fill="#58BAC3" d="M600.007 463.014c-6.043 18.436-12.086 36.87-18.602 55.658-1.336-.01-2.2-.374-2.925-1.123a75336 75336 0 0 0 16.741-50.893l-1.443-.964c-7.624 5.763-15.249 11.527-23.173 17.462-3.095 5.979-5.89 11.787-8.805 17.893-.695 1.176-1.27 2.054-2.173 2.787-3.958-.943-4.97-2.722-3.792-6.54 1.248-4.043 1.85-8.382 2.052-12.623.21-4.427-1.406-7.824-6.894-7.034 5.23-9.159 10.46-17.927 15.52-26.791.826-1.448.912-3.32 1.462-5.236.858-.939 1.594-1.636 2.704-2.426.938-.404 1.636-.595 2.046-1.046 12.469-13.75 25.875-26.373 42.155-35.626 1.01-.574 1.586-1.911 2.715-2.89 1.037.138 1.724.275 2.403.798-1.18 4.476-2.9 8.502-3.387 12.671-.623 5.335-.25 10.785-.497 16.453-1.295 1.005-2.399 1.743-3.866 2.424-1.616-.503-2.845-1.032-4.123-1.38-8.515-2.321-17.768 1.045-19.143 10.497-.49 3.367.659 6.973.762 10.67-4.537 5.207-8.777 10.213-13.017 15.219l1.183 1.253c5.817-3.759 11.634-7.517 17.777-11.213 1.657.71 2.989 1.355 4.32 2"/><path fill="#4598B6" d="M512.13 602.304c-23.782 34.559-64.157 61.32-113.01 52.86a223 223 0 0 1 13.868-4.245c15.286-2.94 28.496-9.62 40.73-18.266 4.41-3.116 8.24-7.054 12.628-10.773 5.975-6.082 11.867-11.822 17.27-17.99 4.421-5.047 8.259-10.603 12.598-15.659 1.485.632 2.727.988 3.97 1.346 6.502 1.876 7.514 8.906 11.946 12.727"/><path fill="#54C2C6" d="M635.018 358.883c14.585 1.104 27.82 6.797 40.981 12.467 12.62 5.437 24.957 11.528 37.778 17.878 1.387.866 2.415 1.186 3.442 1.505 0 0 .046.006-.064.37-.855 1.371-1.44 3.045-2.374 3.27-3.832.92-4.03 3.575-3.877 6.856-.312.49-.574.678-1.11.496-22.175-7.305-43.97-15.098-67.59-15.124-.306-10.583-4.799-17.499-13.13-19.88-8.634-2.468-15.967-.056-21.975 6.28-1.134-1.313-2.196-2.248-3.052-3.468 6.517-2.717 12.774-5.3 19.158-7.52 3.836-1.336 7.868-2.106 11.813-3.13"/><path fill="#3B7AA9" d="M389.518 652.843c-12.326-4.437-24.786-8.54-36.945-13.395-16.354-6.53-32.476-13.643-49.016-20.934 5.09-3.325 10.499-6.22 16.186-8.896 5.566 4.856 10.406 2.782 15.35-.468 15.49 7.179 30.778 14.054 46.052 21.337-2.517 9.748 1.642 16.544 8.373 22.356"/><path fill="#4BA5BB" d="M512.414 602.11c-4.716-3.627-5.728-10.657-12.23-12.533-1.243-.358-2.485-.714-3.917-1.694 3.456-6.709 7.103-12.795 11.02-19.088 3.096-5.44 6.002-10.633 8.727-15.92 3.399-6.596 6.648-13.27 10.21-19.637a540 540 0 0 0 11.97 7.419c1.894 1.143 3.821 2.231 5.78 3.739-.34 1.972-.48 3.666-1.156 5.107-3.85 8.198-7.827 16.336-12.145 24.452-2.139-.184-4.012-.794-5.629-.387-8.773 2.213-11.008 10.652-5.031 18.468-2.438 3.294-4.876 6.588-7.599 10.075"/><path fill="#DC308F" d="M389.819 652.989c-7.032-5.958-11.19-12.754-8.433-22.7.63-1.753 1.007-2.9 1.589-4.346 6.94-9.271 15.653-11.328 26.114-7.639.114.04.329-.075.496.228 2.127 2.382 4.087 4.462 6.097 6.868.698 1.44 1.345 2.554 2.046 4.08 2.961 8.568.262 15.328-5.176 21.407-4.453 1.363-8.907 2.727-13.735 4.086a184 184 0 0 1-8.998-1.984"/><path fill="#58BAC3" d="M512.127 430.595c.91-1.535 1.822-3.071 3.351-4.576 1.408.548 2.422 1.678 2.95 1.484 4.539-1.667 7.983.559 11.397 2.924 2.1 1.454 4.108 3.04 6.177 4.827.038.432.056.604-.089 1.08-8.085 16.09-16.008 31.874-24.285 47.595-2.458-3.565-4.546-7.078-6.673-10.568-1.894-3.107-3.26-7.416-8.041-3.622-.89-1.127-1.579-2-2.16-3.229 2.188-5.42 4.269-10.483 6.781-15.543 5.315.45 9.947-.027 12.422-4.996 2.31-4.639 1.29-9.017-1.976-13.235.056-.92.1-1.53.146-2.14"/><path fill="#4BA5BB" d="M391.598 678.614c13.88.894 27.774 2.65 41.638 2.438 13.906-.213 27.085-4.8 39.301-11.578 1.492-.828 3.198-3.113 3.119-4.636-.647-12.536 7.932-18.881 20.215-14.038 1.338.832 2.089 1.481 2.84 2.13 4.668 7.331 4.658 13.139-.03 18.186-4.469 4.809-11.02 5.267-18.242 1.503-1.105-.576-2.97-.835-3.974-.295-27.613 14.872-56.68 16.248-87.043 9.23.467-1.224 1.322-2.082 2.176-2.94"/><path fill="#3472A5" d="M265.007 596.072c23.51-12.072 48.164-13.015 73.468-7.509 3.577.778 7.126 1.689 10.985 2.957-4.586 2.745-9.469 5.07-14.553 7.11-6.425-7.639-14.178-6.283-17.954 2.757-11.18.236-21.932.39-32.679.713-5.437.164-10.865.633-16.58.757-1.084-2.4-1.886-4.592-2.687-6.785"/><path fill="#6EC8D1" d="M533.934 400.973c7.618-10.434 17.81-18.038 28.225-25.328 3.756-2.629 8.007-4.55 12.597-6.537 1.262.68 1.908 1.265 2.663 1.496 6.54 1.998 6.543 1.978 5.615 8.968-.065.485-.025.983-.185 1.77-4.403 4.35-8.655 8.402-13.24 12.55-4.108 3.758-7.882 7.422-12.038 11.04-8.134-1.352-15.886-2.655-23.637-3.96"/><path fill="#5FC4CA" d="M711.016 401.011c-.265-3.063-.067-5.718 3.765-6.639.934-.224 1.519-1.898 2.391-3.284 1.785.064 3.444.507 5.455 1.474 1.005 1.43 1.647 3.097 2.311 3.105 2.708.035 5.423-.438 8.538-.701 3.316.343 6.23.663 9.144.984 6.473.585 13.03 2.126 19.405 1.577 19.212-1.656 34.948-10.913 48.55-24.167 1.188-1.158 2.446-2.244 3.994-3.468-.099.925-.272 2.184-.98 2.951-14.785 16.032-31.388 29.392-53.597 33.21-14.206 2.442-28.421 1.564-42.584-3.41.203-1.622.739-2.837 1.886-5.437zm-177.372.121c8.041 1.145 15.793 2.448 23.794 4.104-4.637 6.827-9.523 13.302-14.68 19.97-2.44 3.391-4.608 6.59-6.775 9.788-2.05-1.527-4.058-3.113-6.158-4.567-3.414-2.365-6.858-4.59-11.396-2.924-.529.194-1.543-.936-2.674-1.667 5.639-8.325 11.619-16.435 17.89-24.704"/><path fill="#DC308F" d="M559.211 349.212c4.532 14.994-6.508 23.042-16.283 21.67-1.63-.23-3.212-.813-5.388-1.584-1.462-.852-2.353-1.351-3.243-1.851-.356-.737-.662-1.504-1.076-2.206-4.352-7.375-3.588-15.387 1.963-20.401 5.655-5.108 13.875-4.9 21.223.961a156 156 0 0 1 2.804 3.41"/><path fill="#86D8DC" d="M705.171 417.91c9.911 3.543 19.802 7.143 29.747 10.586 2.458.851 5.092 1.193 8.079 1.925 5.481 4.913 13.966 6.167 19.256 2.94 6.294-3.841 14.37-1.703 17.428 4.614 2.945 6.083.624 13.051-5.183 15.56-7.57 3.271-15.548.42-17.188-7.146-1.1-5.076-4.026-6.638-8.089-8.012-6.263-2.117-12.46-4.433-19.158-7.088-3.216-1.433-5.984-2.378-8.695-3.466-5.828-2.34-11.626-4.756-17.414-7.447.421-1.026.82-1.746 1.217-2.466"/><path fill="#F47346" d="M590.426 535.068c-.463 14.596-14.894 21.471-26.905 13.98-1.336-1.116-2.174-1.873-3.168-2.923-7.291-11.876-4.634-22.288 6.806-26.691 4.5 4.455 9.243 8.288 13.082 12.877 3.055 3.652 5.914 5.028 10.185 2.757"/><path fill="#6EC8D1" d="M642.958 332.253c2.926.218 5.07-.46 7.156-3.093 3.42-4.316 8.4-5.072 13.554-3.196 4.996 1.82 7.994 5.534 8.003 10.847.006 3.42 1.267 4.853 4.315 6.097 10.276 4.195 20.405 8.75 30.845 13.627-.152 1.62-.559 2.781-.965 3.942-10.973-4.739-21.903-9.583-32.972-14.087-1.42-.578-3.837.161-5.323 1.064-8.965 5.448-17.916 2.049-20.604-7.894-.323-1.194-1.569-2.138-2.57-3.68-.6-1.53-1.02-2.579-1.439-3.627"/><path fill="#62B0C1" d="M391.374 678.29c-.63 1.182-1.485 2.04-2.358 3.294-2.81 5.4-7.566 7.713-12.837 6.63-5.91-1.216-10.33-5.597-10.062-11.33.193-4.121-1.79-5.395-4.858-6.862-10.363-4.956-20.613-10.146-31.136-15.646.423-1.447 1.077-2.497 1.73-3.546 10.527 5.241 21.06 10.473 31.578 15.731 2.597 1.298 4.589 1.903 7.487-.43 6.66-5.362 16.137-2.063 18.845 6.078.621 1.866.933 3.835 1.611 6.08"/><path fill="#F47346" d="M442.786 516.135c-13.246-8.784-12.996-23.615.876-30.857 4.51 4.87 8.533 9.568 12.88 13.942 2.878 2.895 5.524 6.932 10.744 5.136-.756 8.07-10.635 14.675-20.437 13a92 92 0 0 0-4.063-1.22"/><path fill="#359BAE" d="M590.04 455.554c-.4-3.496-1.548-7.102-1.058-10.47 1.375-9.45 10.628-12.817 19.143-10.496 1.278.348 2.507.877 4.246 1.731 3.934 4.552 6.003 9.106 4.442 14.877-.479 1.66-.668 3.096-.858 4.534 0 0-.331.275-.883.316-1.1.89-1.648 1.741-2.196 2.591-.411.416-.823.832-1.874 1.302-1.45.655-2.26 1.255-3.07 1.856-2.359.396-4.718.793-7.501 1.204-1.755-.63-3.087-1.276-4.981-2.235-2.179-1.945-3.794-3.577-5.41-5.21"/><path fill="#62B0C1" d="M442.674 516.526c1.379-.033 2.645.326 3.992 1.21-2.406 11.55-4.891 22.574-7.377 33.597l1.777.762c9.121-5.963 17.709-12.61 24.791-21.027.887-1.054.883-3.074.86-4.641-.121-8.423 2.72-11.841 11.038-12.572-1.767 4.398-3.567 8.427-5.424 12.43-1.35 2.908-2.776 5.78-4.499 8.782a1928 1928 0 0 0-26.446 21.235c-.799.653-1.156 1.846-2.058 2.842-3.72 1.636-7.1 3.22-10.906 4.81-2.135.564-3.844 1.123-5.553 1.68-8.89 2.896-17.782 5.792-26.75 8.298-.365-1.675-.652-2.959-.939-4.243 1.131.093 2.411.582 3.37.22 11.463-4.324 22.92-8.67 34.252-13.32 1.444-.593 2.775-2.832 3.117-4.52 2.369-11.686 4.462-23.428 6.755-35.543"/><path fill="#4BA5BB" d="M616.328 455.727c-.183-1.435.006-2.872.876-4.506 1.65-.385 2.637-.505 3.584-.771 4.469-1.257 8.423-2.241 8.624-8.666.167-5.342 5.866-9.153 11.525-8.908 3.046.131 6.042 1.43 9.075 2.498.75 1.072 1.484 1.847 2.22 2.622.631 2.346 1.263 4.692 1.83 7.83a87 87 0 0 1-1.082 5.08c-4.497 8.198-13.622 10.175-20.209 3.71-2.978-2.922-5.312-3.072-8.626-1.637-2.423 1.049-4.958 1.84-7.817 2.748"/><path fill="#3472A5" d="m229.947 637.835-25.31 31.664c-.518-10.543 20.026-42.11 39.403-59.193 3.693 2.034 6.82 4.138 10.017 6.462.697.107 1.324-.005 2.266-.246.763-.157 1.211-.188 1.652.124-1.436 1.49-2.773 3.484-4.307 3.649-9.995 1.076-15.817 8.53-22.672 14.382-.722.616-.717 2.085-1.05 3.158"/><path fill="#4BA5BB" d="M395.118 569.357c.349 1.616.636 2.9.962 4.944-1.863 11.402-9.81 15.193-21.183 10.553-.928-1.12-1.752-1.96-2.576-2.799-.751-2.424-1.503-4.849-2.044-7.894.428-1.967.646-3.314.863-4.66 2.32-5.222 6.288-8.217 12.041-8.076 5.344.132 9.601 2.436 11.937 7.932"/><path fill="#3B7AA9" d="M230.257 637.72c.022-.958.017-2.427.739-3.043 6.855-5.852 12.677-13.306 22.672-14.382 1.534-.165 2.87-2.159 4.641-3.777 1.045-.602 1.747-.732 2.678-.556 3.283 1.68 2.892-.517 3.008-2.602 1.415-2.633 2.735-4.95 4.519-7.27 15.826-.002 31.19-.002 48.268-.002-7.675 3.76-14.134 6.926-20.946 9.912-5.443-3.12-10.574-1.595-15.701-.313-19.396.81-35.504 9.054-49.878 22.034"/><path fill="#86D8DC" d="M583 381.047c.009-.492-.03-.99.034-1.475.928-6.99.925-6.97-5.615-8.968-.755-.23-1.401-.817-2.3-1.575 18.44-10.723 38.26-14.304 59.616-10.394-3.662 1.272-7.694 2.042-11.53 3.377-6.384 2.221-12.641 4.804-19.502 7.601A3381 3381 0 0 1 583 381.047M260.758 615.656c-.702.13-1.404.26-2.441.52-.783.158-1.231.189-2.315.192-1.096.042-1.556.111-2.015.18-3.127-2.104-6.254-4.208-9.69-6.454-2.03-7.774-.74-12.38 4-15.53 4.712-3.132 10.272-2.712 16.387 1.36 1.124 2.34 1.926 4.533 3.016 7.31.31 1.343.33 2.1.35 2.858-1.32 2.317-2.64 4.635-4.352 7.374-1.241 1.012-2.09 1.6-2.94 2.19"/><path fill="#62B0C1" d="M642.566 332.145c.811 1.156 1.23 2.204 1.555 3.5-7.032-.438-13.956-1.367-20.91-1.762-22.54-1.28-43.48 4.368-63.591 15.209-1.206-.872-2.004-1.863-2.918-3.006 13.738-7.554 28.157-13.323 43.872-15.341 13.936-1.79 27.808-1.53 41.992 1.4"/><path fill="#DC308F" d="M382.957 538.96c-1.322-5.496.373-9.624 4.593-12.531 3.748-2.581 7.895-2.56 11.794-.288 4.106 2.392 5.906 6.2 5.554 10.918-.36 4.827-3.86 8.647-8.677 9.688-5.293 1.143-10.093-1.565-13.264-7.787m259.706-53.465c-.15 6.736-2.465 10.317-7.41 11.957-4.512 1.496-9.205.04-11.984-3.717-2.868-3.879-2.97-8.917-.204-13.051 2.367-3.54 5.834-4.872 9.913-4.366 5.192.646 8.299 3.79 9.685 9.177"/><path fill="#6EC8D1" d="M652.621 437.887c-1.125-.666-1.86-1.441-2.427-2.809 6.377-4.082 12.586-7.572 19.141-11.14 5.555-3.006 10.765-5.934 15.974-8.862l-.045-1.867c-15.26-6.089-30.521-12.178-45.712-18.604.686-1.534 1.302-2.731 2.278-3.745 5.058 2.216 9.697 4.398 14.465 6.248 10.602 4.111 21.268 8.056 31.873 12.464-.06 3.727-.084 7.058-.499 10.393-3.78 1.898-7.173 3.792-10.565 5.686-8.03 4.042-16.062 8.084-24.483 12.236"/><path fill="#50B1C0" d="M742.853 395.768c-3.147-.139-6.06-.459-9.405-1.17-1.403-2.787-2.375-5.182-3.348-7.577-.252-9.716 5.141-13.74 15.584-10.93 1.372.847 2.223 1.384 3.075 1.92.445 4.056 1.78 8.295.995 12.096-.452 2.192-4.33 3.676-6.9 5.66"/><path fill="#4598B6" d="M280.11 616.077c5.152-1.672 10.283-3.196 15.665.229.823 1.532 1.353 2.58 1.884 3.628 1.885 10.886-3.633 16.004-15.328 13.41-1.3-.72-2.143-1.056-2.986-1.393-2.468-5.29-3.817-10.528.764-15.874m231.861-183.03c3.276 3.907 4.297 8.285 1.987 12.924-2.475 4.969-7.107 5.447-12.624 4.768-1.528-.695-2.421-1.157-3.474-1.949-.94-.887-1.722-1.446-2.504-2.004-.183-2.717-.804-5.491-.453-8.136.65-4.89 3.913-7.381 9.853-7.722a78 78 0 0 1 3.993.256c.188.164.376.328 1.024.877 1.04.585 1.619.785 2.198.986"/><path fill="#62B0C1" d="M508.924 430.772c-1.265.32-2.354.228-3.778.128 4.202-21.11 11.511-41.022 24.752-58.38 1.203-1.575 2.548-3.042 4.113-4.817 1.176.244 2.067.743 3.14 1.49-10.407 14.076-18.766 29.09-23.87 45.8-1.55 5.075-2.795 10.242-4.357 15.779"/><path fill="#4598B6" d="M520.265 592.133c-6.23-7.913-3.994-16.352 4.78-18.565 1.616-.407 3.489.203 5.789.632 1.088.483 1.63.678 2.298 1.126.922 1.036 1.719 1.818 2.515 2.6.348 2.76 1.328 5.621.911 8.261-.822 5.204-5.01 6.897-10.402 7.678-1.892-.178-3.091-.485-4.29-.792-.45-.28-.9-.562-1.601-.94"/><path fill="#62B0C1" d="M521.908 593.455c1.157-.075 2.356.232 3.928.6-4.116 21.603-12.238 41.467-26.858 58.665-1.018-.439-1.77-1.088-2.664-1.935 12.53-17.261 21.425-36.041 25.594-57.33"/><path fill="#F8894F" d="M467.299 503.964c-5.233 2.188-7.88-1.849-10.756-4.744-4.348-4.374-8.37-9.072-12.532-14.012 4.683-3.29 9.423-2.512 14.731-.24 1.632 1.083 2.713 1.814 3.928 2.849 3.755 4.982 6.641 9.87 4.629 16.147"/><path fill="#4BA5BB" d="M677.494 425.782a55.6 55.6 0 0 1 10.351-5.517c6.978 5.11 8.696 5.123 16.086.418 5.81 2.384 11.61 4.8 17.437 7.14 2.71 1.088 5.48 2.033 8.299 3.338-14.511 1.55-28.744-.922-42.947-3.765-2.927-.585-5.89-.993-9.226-1.614"/><path fill="#6EC8D1" d="M298.021 619.746c-.893-.86-1.423-1.908-1.893-3.261 6.52-3.471 12.979-6.636 20.654-10.397-17.079 0-32.442 0-48.268.002-.484-.756-.504-1.513-.53-2.648 5.425-.709 10.853-1.178 16.29-1.342 10.747-.323 21.498-.477 32.66-.358 1.12 2.78 1.825 5.217 2.53 7.655-5.408 2.896-10.817 5.792-16.266 9.014-1.631.6-3.223.873-5.177 1.335"/><path fill="#F47346" d="M797.236 336.367c-2.932 6.269-6.9 7.8-15.642 5.552-1.55-.882-2.488-1.513-3.426-2.144-4.436-7.993-3.535-13.514 3.576-17.764 1.501 1.521 2.172 3.138 3.188 4.497 3.24 4.333 6.927 8.168 12.304 9.86"/><path fill="#DC308F" d="M705.909 360.919c.363-1.603.77-2.764 1.266-4.23.848-.95 1.556-1.672 2.375-2.23 3.574-2.436 7.226-2.443 10.664.147 3.44 2.59 4.55 6.166 3.076 10.206-1.416 3.883-4.57 5.709-8.6 5.56-4.24-.158-7.222-2.308-8.408-6.542-.222-.792-.226-1.645-.373-2.911M331.857 650.5c-.657 1.38-1.311 2.429-2.103 3.755-5.741 3.64-10.298 3.34-13.37-.816-2.516-3.405-2.775-7.092-.211-10.599 2.555-3.495 6.19-4.537 10.142-3.051 4.685 1.76 6.326 5.513 5.542 10.71"/><path fill="#F8894F" d="M320.062 565.217c-6.038 3.043-12.489 1.042-15.454-4.792-3.119-6.135-.9-12.258 6.058-15.185 2.212 2.842 4.493 5.101 5.674 7.836 1.667 3.863 2.52 8.077 3.722 12.14m270.503-30.536c-4.41 2.66-7.27 1.283-10.324-2.369-3.839-4.589-8.581-8.422-12.804-13.123 3.72-.779 7.311-1.016 10.903-1.253.864.363 1.729.727 2.95 1.1 5.563 3.792 9.581 8.281 9.275 15.645"/><path fill="#F47346" d="M718.856 475.292c-3.681 4.182-8.241 4.686-13.106 2.759-5.331-2.112-7.3-6.403-6.785-12.658.408-1.717.708-2.723 1.007-3.73 2.458-1.775 4.915-3.55 7.7-4.907 2.063 5.163 3.468 10.073 5.7 14.573.885 1.788 3.601 2.67 5.484 3.963"/><path fill="#F8894F" d="M260.74 682.937c-4.015 4.857-10.099 5.796-15.276 2.358-5.236-3.477-6.516-9.864-2.704-16.025 7.086 2.19 12.922 5.178 15.643 12.17.272.696 1.535 1.007 2.338 1.497"/><path fill="#86D8DC" d="M777.884 339.984c1.222.422 2.16 1.053 3.286 1.854-10.468 12.076-21.122 23.982-32.094 36.03-1.169-.393-2.02-.93-2.992-1.763 5.547-6.964 11.114-13.72 16.912-20.272 4.725-5.34 9.726-10.436 14.888-15.85"/><path fill="#62B0C1" d="M462.535 487.514c-1.08-.732-2.161-1.463-3.392-2.398 11.789-12.826 23.727-25.449 35.938-38.2 1.056.428 1.838.987 2.615 2.156-11.723 13.22-23.442 25.831-35.16 38.442"/><path fill="#6EC8D1" d="M699.608 461.519c.065 1.151-.235 2.157-.694 3.463-14.03-4.238-27.898-8.78-41.775-13.3-1.093-.355-2.24-.544-3.76-.794-.06-1.411.28-2.84.667-4.648 15.097 4.792 30.147 9.963 45.562 15.279M370.715 569.463c.208 1.384-.01 2.73-.482 4.31a1114 1114 0 0 1-44.114-13.063c.028-1.582.4-2.71.77-3.839 14.467 4.185 28.934 8.37 43.826 12.592"/><path fill="#F47346" d="M261.037 682.735c-1.1-.288-2.362-.599-2.634-1.296-2.721-6.991-8.557-9.98-15.361-12.4 2.729-4.847 6.564-6.13 13.589-4.484 1.613 1.028 2.647 1.809 3.681 2.59 3.614 4.911 4.776 9.986.725 15.59"/><path fill="#6EC8D1" d="M260.533 666.836c-1.255-.472-2.29-1.253-3.529-2.24 7.092-10.92 14.39-21.636 22.014-32.498 1.17.19 2.012.526 2.929 1.135-7.015 11.28-14.105 22.287-21.414 33.603"/><path fill="#F8894F" d="M719.153 475.18c-2.18-1.182-4.896-2.063-5.782-3.85-2.23-4.501-3.636-9.41-5.355-14.525 5.347-2.517 8.828.595 11.781 4.18 3.198 3.88 2.836 9.473-.644 14.195"/><path fill="#F47346" d="M326.843 556.476c-.325 1.524-.696 2.652-1.118 4.045a49 49 0 0 1-5.318 4.628c-1.547-3.996-2.4-8.21-4.067-12.073-1.18-2.735-3.462-4.994-5.31-7.82 8.16-3.677 15.14 1.253 15.813 11.22"/><path fill="#6EC8D1" d="M371.999 582.238c1.146.656 1.97 1.496 2.685 2.876-5.07 3.03-10.03 5.52-15.33 8.064-7.88 3.08-15.42 6.104-23.16 8.819-.495-1.234-.79-2.157-1.086-3.08 4.883-2.326 9.766-4.652 14.726-7.296 7.332-3.28 14.587-6.24 22.165-9.383"/><path fill="#62B0C1" d="M535.917 577.719c-1.066-.575-1.863-1.357-2.619-2.683 9.097-9.902 18.154-19.26 27.21-28.617.839.756 1.677 1.513 2.653 2.506-8.9 9.687-17.936 19.137-27.244 28.794"/><path fill="#F8894F" d="M797.52 336.13c-5.661-1.454-9.349-5.29-12.588-9.622-1.016-1.36-1.687-2.976-2.848-4.55 3.624-2.94 7.713-2.534 11.441.059 4.696 3.267 5.955 7.986 3.996 14.113"/><path fill="#6EC8D1" d="M729.887 387.286c1.186 2.13 2.158 4.525 3.158 7.289-2.684.654-5.399 1.127-8.107 1.092-.664-.008-1.306-1.676-1.97-2.939 2.227-1.964 4.466-3.57 6.92-5.442"/><path fill="#5FC4CA" d="M717.094 390.439c-.902-.025-1.93-.345-3.026-1.011.92.007 1.91.361 3.026 1.01"/><path fill="#4BA5BB" d="M608.25 461.806c.492-.612 1.302-1.212 2.457-1.796-.483.614-1.311 1.211-2.457 1.796m4.92-3.234c.254-.785.802-1.635 1.692-2.482-.24.808-.819 1.613-1.692 2.482"/><path fill="#62B0C1" d="M511.98 432.736c-.59.11-1.168-.09-1.893-.473.38-.594.904-1.005 1.735-1.542.26.484.215 1.095.159 2.015"/><path fill="#5FC4CA" d="M822.61 359.91c-.062.6-.41 1.315-1.072 2.101.052-.614.418-1.3 1.071-2.1m-3.006 3.991c-.09.603-.47 1.318-1.18 2.085.077-.623.484-1.298 1.18-2.085"/><path fill="#3472A5" d="M203.55 671.428c.004-.04-.004.04 0 0"/><path fill="#F6F6F6" d="M703.954 420.376c-7.413 5.012-9.131 4.999-15.72-.115-.15-3.631-.125-6.962.213-10.891 4.602-5.484 9.522-3.732 14.425-1.653.51 1 1.042 1.711 1.574 2.422.236 2.343.472 4.687.717 7.4-.39 1.091-.788 1.811-1.209 2.837"/><path fill="#6EC8D1" d="M704.817 410.024c-.903-.596-1.435-1.307-1.805-2.643 2.44-2.208 4.718-3.79 6.996-5.371.322-.103.584-.29.896-.781 2.422-1.28 4.732-2.341 8.39-4.023-1.147 2.6-1.683 3.815-2.273 5.365-3.98 2.669-7.906 5.003-12.204 7.453"/><path fill="#F2F5F2" d="M560.353 546.125c-8.901 9.652-17.958 19.01-27.18 28.658-.71.095-1.251-.1-1.955-.54 3.773-8.404 7.75-16.542 11.6-24.74.677-1.441.816-3.135 1.34-5.402a2001 2001 0 0 1 14.318-36.197c.346-.752.478-1.308.821-2.064.36-.754.51-1.308.659-1.861.574-.878 1.149-1.756 2.163-3.013 6.164-4.852 9.328-10.54 8.786-17.983l22.873-17.291 1.443.964a75449 75449 0 0 1-16.741 50.893c-3.732.623-7.323.86-11.191 1.343-11.57 4.945-14.227 15.357-6.936 27.233"/><path fill="#359BAE" d="m639.482 394.943 45.782 18.266.045 1.867c-5.21 2.928-10.419 5.856-16.375 8.765-19.155-2.983-36.437.237-52.63 9.436.057-5.4-.316-10.851.307-16.186.486-4.17 2.207-8.195 3.822-12.713 8.308.007 14.34-3.347 19.05-9.435"/><path fill="#DC308F" d="M639.552 394.605c-4.779 6.426-10.811 9.78-19.112 9.387-1.121-.095-1.808-.232-3.106-.589-3.455-2.052-6.3-3.883-9.218-5.993-.68-1.008-1.286-1.736-1.963-2.784-.606-1.25-1.144-2.18-1.696-3.544-1.403-6.553-.406-12.296 2.715-17.703 5.935-6.714 13.268-9.126 21.903-6.658 8.33 2.381 12.823 9.297 12.986 20.228a94 94 0 0 1-.592 3.728c-.615 1.197-1.231 2.394-1.917 3.928"/><path fill="#50B1C0" d="M558.263 508.1c-4.656 11.77-9.312 23.54-14.152 35.606-2.096-.818-4.023-1.906-5.917-3.05-3.917-2.365-7.817-4.76-11.923-7.776 3.125-8.7 6.45-16.768 10.04-25.055 1.45-2.747 2.595-5.293 3.818-7.802 3.585-7.35 7.201-14.686 10.805-22.027 5.547-1.149 7.163 2.248 6.953 6.675-.201 4.241-.804 8.58-2.052 12.623-1.178 3.818-.166 5.597 3.792 6.54.18.698.03 1.252-.64 2.029-.589.894-.656 1.565-.724 2.237"/><path fill="#F2F5F2" d="M616.114 433.544c16.383-9.466 33.665-12.686 52.475-9.624-5.809 3.586-12.018 7.076-18.41 10.862-3.2-.476-6.196-1.775-9.242-1.906-5.66-.245-11.358 3.566-11.525 8.908-.2 6.425-4.155 7.41-8.624 8.666-.947.266-1.934.386-3.295.549.88-5.574-1.188-10.128-4.758-14.624.98-1.088 2.084-1.826 3.379-2.83"/><path fill="#359BAE" d="M608.19 397.69a882 882 0 0 1 8.794 5.71c-.518 1.2-1.094 2.538-2.104 3.112-16.28 9.253-29.686 21.876-42.155 35.626-.41.451-1.108.642-1.904.593-.351-3.48-.471-6.598-.275-9.774 12.759-11.795 25.201-23.532 37.643-35.268"/><path fill="#3390A9" d="M550.993 477.637c-3.663 7.7-7.28 15.036-10.864 22.386-1.223 2.509-2.369 5.055-3.977 7.496-1.053-1.035-1.68-1.983-2.147-3.214 6.04-6.469 6.314-9.459 1.766-16.639 3.566-6.387 7.018-12.42 10.4-18.49 4.01-7.201 7.959-14.435 12.258-21.72 1.423-.12 2.522-.175 3.774-.045.676.007 1.201-.17 2.063-.418 1.42-.427 2.503-.785 3.586-1.142-.427 1.676-.513 3.547-1.34 4.995-5.06 8.864-10.288 17.632-15.52 26.79"/><path fill="#F6F6F6" d="M567.975 445.61c-1.206.598-2.29.956-4.026 1.31-1.068.1-1.483.203-1.898.306-1.1.055-2.2.11-3.636-.048-1.099-.692-1.86-1.17-2.773-1.886-.542-.628-.932-1.02-1.366-1.7-.365-.758-.686-1.227-1.042-2.027-.2-.74-.368-1.15-.474-1.937-.031-1.13-.124-1.882-.084-2.988.248-1.098.364-1.842.742-2.799 3.828-6.407 9.135-5.04 14.537-3.185.794.988 1.535 1.674 2.275 2.36.12 3.117.24 6.235.217 9.807-.878 1.15-1.614 1.848-2.472 2.787"/><path fill="#F2F5F2" d="M589.744 455.755c1.912 1.432 3.527 3.064 5.38 4.946-5.58 4.009-11.397 7.767-17.214 11.526l-1.183-1.253c4.24-5.006 8.48-10.012 13.017-15.219"/><path fill="#62B0C1" d="M570.605 483.154c.842 7.273-2.322 12.96-8.365 17.514 2.476-5.727 5.27-11.535 8.365-17.514"/><path fill="#3472A5" d="M412.988 650.919c5.002-6.11 7.701-12.87 5.067-21.61a678 678 0 0 1 26.746-17.504c1.333-.827 3.657-1.456 4.858-.852 5.095 2.561 9.294 1.347 13.336-1.712.379 2.845.523 5.309 1.061 7.684.4 1.764 1.312 3.412 1.996 5.112-4.094 3.562-7.924 7.5-12.334 10.616-12.234 8.646-25.444 15.326-40.73 18.266"/><path fill="#2D709E" d="M466.346 621.88c-.978-1.543-1.89-3.191-2.29-4.955-.538-2.375-.682-4.84-.918-8.017.637-2.962 2.113-5.434 1.571-7.331-1.26-4.415 1.243-6.78 3.644-9.51 4.589-5.218 9.102-10.503 14.091-15.7 2.817.23 5.19.398 7.622.921 1.165.693 2.692 1.668 3.304 1.262 3.234-2.145 6.203-4.687 9.34-6.987 1.34-.984 2.865-1.716 4.306-2.562-3.646 6.087-7.293 12.173-10.992 18.608-4.15 5.678-7.987 11.234-12.407 16.28-5.404 6.169-11.296 11.91-17.27 17.991"/><path fill="#359BAE" d="M641.83 390.86c-.189-1.165-.016-2.147.3-3.477 23.694-.756 45.489 7.037 67.663 14.342-2.063 1.867-4.341 3.448-6.76 5.367-5.064-1.454-9.984-3.206-14.552 1.882a1000 1000 0 0 1-32.186-11.866c-4.768-1.85-9.407-4.032-14.465-6.248"/><path fill="#3DACB7" d="M607.1 373c-3.049 5.786-4.046 11.529-2.913 18.399-8.899 4.376-17.545 8.003-26.228 11.27-1.685-2.084-3.343-3.8-4.978-5.536-1.03-1.095-2.028-2.223-3.04-3.336 4.253-4.053 8.505-8.106 12.908-12.454 6.869-3.985 13.586-7.674 20.648-11.444 1.406.854 2.468 1.789 3.602 3.101"/><path fill="#F6F6F6" d="M334.907 598.63c.497 1.21.792 2.133 1.152 3.712.082 1.637.099 2.62-.19 3.757-.53 1.02-.754 1.884-.978 2.748-4.742 3.553-9.582 5.627-15.148.771-.984-2.659-1.69-5.097-2.377-7.89 3.363-9.381 11.116-10.737 17.541-3.097"/><path fill="#6EC8D1" d="M335.093 609.15c.022-1.167.246-2.031 1.144-3.08 1.907.278 3.168.674 4.366 1.21 14.061 6.308 28.112 12.637 42.166 18.96-.376 1.148-.752 2.296-1.37 3.642-15.528-6.678-30.815-13.553-46.306-20.732"/><path fill="#327EA2" d="M507.287 568.795c-1.712 1.052-3.236 1.784-4.577 2.768-3.137 2.3-6.106 4.842-9.34 6.987-.612.406-2.14-.57-3.053-1.487 6.82-4.635 7.565-7.963 3.83-16.28 1.197-2.009 1.963-3.947 3.283-5.372 1.297-1.399 3.227-3.313 4.76-3.21 8.857.593 11.525-7.035 9.079-14.544-.408-1.253-.998-2.446-1.323-3.979 5.175-9.858 10.17-19.405 15.605-28.933 3.058-.04 5.677-.098 8.295-.157a145 145 0 0 1 2.039 3.15c-3.165 8.374-6.489 16.442-9.861 24.869-3.362 6.998-6.611 13.672-10.01 20.268-2.725 5.287-5.631 10.48-8.727 15.92"/><path fill="#3472A5" d="M382.975 625.943c-14.26-6.026-28.31-12.355-42.372-18.662-1.198-.537-2.46-.933-4.06-1.366-.385-.954-.402-1.936-.284-3.263 7.676-3.37 15.216-6.394 23.4-9.195 17.273 3.39 33.828 3.901 50.326-.778 4.05 4.723 4.845 9.416 2.37 14.906-1.524 3.38-2.28 7.108-3.381 10.68-10.346-3.65-19.06-1.593-26 7.678"/><path fill="#4598B6" d="M409.089 618.304c.986-3.611 1.742-7.339 3.266-10.72 2.475-5.49 1.68-10.182-2.113-15.1 5.673-3.241 11.188-5.907 16.93-8.294 7.52 4.305 14.77 6.336 21.884.19.344 3.45.644 6.537.655 9.787-1.742 2.364-3.193 4.566-5.003 6.816-11.355 7.098-22.554 13.734-35.29 17.246 0 0-.215.116-.33.075"/><path fill="#6EC8D1" d="M445.067 600.934c1.45-2.201 2.902-4.403 4.946-6.88 1.402-.542 2.21-.808 3.432-1.064 6.285 2.133 10.004-.493 13.486-5.122 3.73-4.958 8.224-9.34 12.631-13.875.978.837 1.708 1.575 2.438 2.314-4.545 5.257-9.058 10.542-13.647 15.76-2.4 2.73-4.904 5.095-3.644 9.51.542 1.897-.934 4.37-1.637 6.913-4.119 3.81-8.318 5.024-13.413 2.463-1.2-.604-3.525.025-4.858.852-8.896 5.525-17.664 11.258-26.8 17.092-.974-.943-1.621-2.057-1.965-3.633 8.423-5.448 16.488-10.527 24.691-15.372 3.582-2.116 4.995-4.953 4.34-8.958"/><path fill="#2D709E" d="M444.708 600.983c1.014 3.956-.4 6.793-3.98 8.909-8.204 4.845-16.269 9.924-24.743 15.045-2.313-1.943-4.273-4.023-6.4-6.405 12.57-3.815 23.768-10.451 35.123-17.549"/><path fill="#327EA2" d="M554.32 443.881c.39.392.78.783 1.016 1.696-2.992 5.164-5.987 9.718-8.635 14.467-4.811 8.63-9.416 17.375-14.517 26.051-5.328-.582-9.71.346-12.068 5.192-2.154 4.427-1.357 8.59 1.847 12.402-5.512 9.613-10.733 18.976-16.363 28.353-8.613.431-14.61 5.817-12.217 12.089 2.296 6.02.062 10.02-2.871 14.648-6.492-1.088-10.344 1.651-12.844 7.197-.777-.38-1.247-.73-1.707-1.445a164 164 0 0 1 5.33-10.691c13.321-22.154 21.447-46.246 30.69-69.848 7.924-15.784 15.847-31.569 24.307-47.666 2.774-1.712 5.508-2.688 7.139-4.604 2.983-3.505 5.28-3.138 7.851.136.594.757 1.25 1.465 1.877 2.196-.115.744-.23 1.488-.764 2.665-.175 1.384.066 2.335.308 3.286.167.41.335.82.266 1.73.294 1.05.824 1.598 1.355 2.146"/><path fill="#50B1C0" d="M511.628 483.93c-8.89 23.664-17.016 47.756-30.55 69.619-1.213-.713-2.546-1.314-2.59-1.998-.424-6.533-4.3-8.084-9.69-6.93-.604-2.447-1.116-4.522-1.58-6.918.347-1.129.646-1.939.946-2.749 1.391-2.889 2.817-5.761 4.167-8.67 1.857-4.002 3.657-8.03 5.545-12.746 5.632-16.022 11.201-31.347 16.77-46.672l2.268 2.873c4.781-3.794 6.147.515 8.04 3.622 2.128 3.49 4.216 7.003 6.674 10.568"/><path fill="#F2F5F2" d="M494.753 466.51a31828 31828 0 0 1-16.934 46.648c-8.383 1.428-11.223 4.846-11.101 13.269.022 1.567.026 3.587-.86 4.641-7.083 8.417-15.67 15.064-24.792 21.027l-1.777-.762c2.486-11.023 4.97-22.047 7.639-33.45 9.723 1.148 19.602-5.458 20.358-13.527 2.025-6.67-.861-11.557-4.616-16.54 11.584-12.913 23.303-25.523 35.185-38.415 1.057.18 1.95.643 3.047 1.334-1.879 5.292-3.96 10.355-6.149 15.775"/><path fill="#3390A9" d="M553.418 433.841c-.89-.518-1.546-1.226-2.14-1.983-2.57-3.274-4.868-3.64-7.851-.136-1.63 1.916-4.365 2.892-6.976 4.3-.393-.164-.411-.336-.449-.768 2.148-3.458 4.316-6.657 7.137-10.051 4.546 1.004 7.505-.527 10.355-3.119 3.413-3.105 7.035-5.995 10.692-8.817 4.536-3.5 9.201-6.833 13.81-10.239 8.646-3.626 17.292-7.253 26.207-11.196.806.613 1.344 1.543 1.634 2.947-1.418 1.392-2.67 2.226-3.748 3.243-11.411 10.76-22.795 21.55-34.187 32.332-5.35-1.553-10.656-2.92-14.484 3.487"/><path fill="#359BAE" d="M577.96 402.669c-4.573 3.765-9.238 7.098-13.774 10.598-3.657 2.822-7.279 5.712-10.692 8.817-2.85 2.592-5.81 4.123-10.083 2.926 4.504-6.472 9.39-12.947 14.41-19.727a309 309 0 0 1 11.787-11.391c1.345 1.018 2.342 2.146 3.373 3.241 1.635 1.737 3.293 3.452 4.978 5.536"/><path fill="#F2F5F2" d="M426.944 583.911c-5.514 2.666-11.029 5.332-16.8 8.193-16.657 5.254-33.212 4.744-50.146 1.297 4.656-2.768 9.617-5.257 14.791-8.007 11.48 4.1 19.428.309 21.369-10.702 8.93-3.266 17.82-6.162 26.711-9.058 1.71-.557 3.418-1.116 5.283-1.372-3.166 4.594-4.264 9.31-2.627 14.577.52 1.676.949 3.38 1.42 5.072"/><path fill="#3390A9" d="M427.172 584.19c-.698-1.97-1.126-3.675-1.647-5.35-1.637-5.267-.54-9.984 3.053-14.585 3.65-1.891 7.03-3.475 11.077-4.934 3.875 1.467 7.085 2.81 10.306 4.504 3.672 7.155 4.735 13.835-.948 20.189-7.07 6.512-14.321 4.481-21.841.176"/><path fill="#F2F5F2" d="M449.949 563.475c-3.21-1.343-6.419-2.687-9.955-4.207.236-1.12.593-2.313 1.392-2.966a1927 1927 0 0 1 26.446-21.235c.032.697-.267 1.507-.827 2.918-5.859 8.898-11.458 17.194-17.056 25.49"/><path fill="#3B7AA9" d="M254.057 616.768c.39-.289.849-.358 1.63-.273-.306.268-.933.38-1.63.273"/><path fill="#3472A5" d="M260.987 615.962c.62-.895 1.47-1.484 2.617-2.18.275 1.663.666 3.86-2.617 2.18"/><path fill="#58BAC3" d="M558.476 507.904c-.145-.476-.078-1.147.3-1.841.178.533.046 1.089-.3 1.84"/><path fill="#6EC8D1" d="M567.955 430.656c11.339-11.084 22.723-21.874 34.134-32.634 1.079-1.017 2.33-1.85 3.817-2.922.924.575 1.53 1.302 2.21 2.31-12.369 12.015-24.811 23.752-37.57 35.547-1.056-.627-1.797-1.313-2.59-2.301"/><path fill="#DC308F" d="M522.256 503.437c-3.497-3.56-4.294-7.723-2.14-12.15 2.357-4.846 6.74-5.774 12.264-4.938 1.487.734 2.366 1.194 3.246 1.655 4.693 6.842 4.42 9.832-1.62 16.301-2.778.342-5.397.4-8.688.226a385 385 0 0 1-3.062-1.094"/><path fill="#6EC8D1" d="M535.771 487.666c-1.025-.123-1.904-.583-2.98-1.296a688 688 0 0 1 13.91-26.326c2.648-4.749 5.643-9.303 8.787-14.23 1.066.193 1.828.672 2.603 1.43a1126 1126 0 0 1-11.92 21.931c-3.382 6.072-6.834 12.104-10.4 18.491m26.432-40.256c.263-.287.678-.39 1.41-.42-.209.25-.734.428-1.41.42"/><path fill="#3390A9" d="M552.76 439.628c-.303-.574-.544-1.525-.501-2.555.377.673.47 1.426.501 2.555m1.516 3.964c-.487-.259-1.017-.807-1.278-1.525.592.298.913.767 1.278 1.525"/><path fill="#F6F6F6" d="M477.973 566.004c2.195-5.574 6.047-8.313 12.785-7.003 1.46.773 2.331 1.426 3.201 2.079 3.923 8.02 3.177 11.348-3.702 15.628-2.623.057-4.996-.111-7.813-.34-1.174-.8-1.904-1.538-2.973-2.758-.725-2.856-1.112-5.23-1.498-7.606"/><path fill="#58BAC3" d="M494.147 560.784c-1.058-.357-1.928-1.01-3.044-1.885 2.342-4.748 4.576-8.748 2.28-14.768-2.393-6.272 3.604-11.658 12.25-11.769 1.673.747 2.903 1.187 4.133 1.628.505 1.22 1.095 2.414 1.503 3.667 2.446 7.509-.222 15.137-9.08 14.543-1.532-.102-3.462 1.812-4.759 3.211-1.32 1.425-2.086 3.363-3.283 5.373"/><path fill="#6EC8D1" d="M509.946 533.678c-1.41-.129-2.64-.57-3.903-1.33 5.187-9.683 10.408-19.046 15.92-28.66 1.09.037 1.886.324 2.916.825-4.763 9.76-9.758 19.307-14.933 29.165"/><path fill="#4BA5BB" d="M449.961 563.825c5.586-8.646 11.185-16.942 16.996-25.52.725 1.794 1.237 3.87 1.841 6.317 5.39-1.155 9.266.396 9.69 6.929.044.684 1.377 1.285 2.326 2.216-1.472 3.661-3.157 7.031-5.144 10.94-7.747 9.783-15.193 19.027-22.638 28.272-.809.267-1.617.533-2.729.912-.603-2.974-.903-6.06-1.247-9.512 5.64-6.719 4.577-13.4.905-20.554"/><path fill="#2D709E" d="M453.445 592.99c7.032-9.256 14.478-18.5 22.214-27.92.762.175 1.232.527 2.009.906.691 2.403 1.078 4.778 1.555 7.535-4.068 5.017-8.562 9.4-12.292 14.357-3.482 4.629-7.2 7.255-13.486 5.122"/></svg>
