<svg xmlns="http://www.w3.org/2000/svg" version="1.1" xmlns:xlink="http://www.w3.org/1999/xlink" width="512" height="512" x="0" y="0" viewBox="0 0 58 58" style="enable-background:new 0 0 512 512" xml:space="preserve"><g><path d="m50.949 12.187-1.361-1.361-9.504-9.505-.002-.001-.77-.771A1.867 1.867 0 0 0 37.985 0H8.963C7.776 0 6.5.916 6.5 2.926V56c0 .837.841 1.652 1.836 1.909.051.014.1.033.152.043.156.031.315.048.475.048h40.074c.16 0 .319-.017.475-.048.052-.01.101-.029.152-.043.995-.257 1.836-1.072 1.836-1.909V13.978c0-.767-.093-1.334-.551-1.791zM39.5 3.565 47.935 12H39.5V3.565zM8.963 56c-.071 0-.135-.025-.198-.049a.46.46 0 0 1-.265-.414V41h41v14.537a.46.46 0 0 1-.265.414c-.063.024-.127.049-.198.049H8.963zM8.5 39V2.926c0-.217.033-.926.463-.926h28.595a1.54 1.54 0 0 0-.058.391V14h11.608c.135 0 .265-.025.391-.058l.001.036V39h-41z" fill="#000000" opacity="1" data-original="#000000"></path><path d="m21.227 43.924-1.928 4.101h-.137l-1.777-4.101h-1.873l2.72 5.181L15.676 54h1.9l1.723-3.801h.137L21.035 54h1.901l-2.557-4.895 2.721-5.181zM30.018 50.814l-2.995-6.89h-1.668V54h1.668v-6.932l2.27 5.606h1.449l2.256-5.606V54h1.668V43.924h-1.668zM38.863 43.924h-1.668V54h6.303v-1.244h-4.635zM23.207 17.293a.999.999 0 0 0-1.414 0l-6 6a.999.999 0 0 0 0 1.414l6 6a.997.997 0 0 0 1.414 0 .999.999 0 0 0 0-1.414L17.914 24l5.293-5.293a.999.999 0 0 0 0-1.414zM35.207 17.293a.999.999 0 1 0-1.414 1.414L39.086 24l-5.293 5.293a.999.999 0 1 0 1.414 1.414l6-6a.999.999 0 0 0 0-1.414l-6-6zM31.833 14.057a.998.998 0 0 0-1.276.61l-6 17a1 1 0 0 0 1.886.666l6-17a1 1 0 0 0-.61-1.276z" fill="#000000" opacity="1" data-original="#000000"></path></g></svg>
